<svg xmlns="http://www.w3.org/2000/svg" xmlns:xlink="http://www.w3.org/1999/xlink" width="220" zoomAndPan="magnify" viewBox="0 0 165 36.000001" height="48" preserveAspectRatio="xMidYMid meet" version="1.0"><defs><g/><clipPath id="1618df1317"><path d="M 158 20 L 162.769531 20 L 162.769531 24 L 158 24 Z M 158 20 " clip-rule="nonzero"/></clipPath></defs><g fill="#ffffff" fill-opacity="1"><g transform="translate(1.881785, 23.744737)"><g><path d="M 1.3125 0 C 1.3125 0 1.3125 -4.460938 1.3125 -13.390625 C 1.3125 -13.390625 2.289062 -13.390625 4.25 -13.390625 C 4.25 -13.390625 4.25 -12.972656 4.25 -12.140625 C 4.71875 -12.703125 5.21875 -13.101562 5.75 -13.34375 C 6.28125 -13.582031 6.941406 -13.703125 7.734375 -13.703125 C 8.671875 -13.703125 9.445312 -13.539062 10.0625 -13.21875 C 10.675781 -12.894531 11.210938 -12.363281 11.671875 -11.625 C 12.210938 -12.351562 12.828125 -12.878906 13.515625 -13.203125 C 14.203125 -13.535156 15.015625 -13.703125 15.953125 -13.703125 C 17.003906 -13.703125 17.929688 -13.503906 18.734375 -13.109375 C 19.546875 -12.722656 20.164062 -12.171875 20.59375 -11.453125 C 21.125 -10.523438 21.390625 -9.285156 21.390625 -7.734375 L 21.390625 0 L 18.171875 0 L 18.171875 -7.359375 C 18.171875 -8.035156 18.117188 -8.578125 18.015625 -8.984375 C 17.921875 -9.398438 17.757812 -9.734375 17.53125 -9.984375 C 17.082031 -10.492188 16.457031 -10.75 15.65625 -10.75 C 14.582031 -10.75 13.820312 -10.300781 13.375 -9.40625 C 13.09375 -8.84375 12.953125 -7.90625 12.953125 -6.59375 L 12.953125 0 L 9.734375 0 C 9.734375 0 9.734375 -2.453125 9.734375 -7.359375 C 9.734375 -8.597656 9.535156 -9.46875 9.140625 -9.96875 C 8.679688 -10.488281 8.019531 -10.75 7.15625 -10.75 C 6.007812 -10.75 5.238281 -10.265625 4.84375 -9.296875 C 4.625 -8.773438 4.515625 -7.875 4.515625 -6.59375 C 4.515625 -6.59375 4.515625 -4.394531 4.515625 0 C 4.515625 0 3.445312 0 1.3125 0 Z M 1.3125 0 "/></g></g></g><g fill="#ffffff" fill-opacity="1"><g transform="translate(24.511644, 23.744737)"><g><path d="M 14.8125 -13.390625 C 14.8125 -13.390625 14.8125 -8.925781 14.8125 0 C 14.8125 0 13.832031 0 11.875 0 C 11.875 0 11.875 -0.578125 11.875 -1.734375 C 11.226562 -1.003906 10.5625 -0.476562 9.875 -0.15625 C 9.1875 0.15625 8.367188 0.3125 7.421875 0.3125 C 6.128906 0.3125 4.96875 0.015625 3.9375 -0.578125 C 2.914062 -1.171875 2.113281 -2 1.53125 -3.0625 C 0.957031 -4.125 0.671875 -5.316406 0.671875 -6.640625 C 0.671875 -7.984375 0.960938 -9.191406 1.546875 -10.265625 C 2.128906 -11.347656 2.9375 -12.191406 3.96875 -12.796875 C 5.007812 -13.398438 6.1875 -13.703125 7.5 -13.703125 C 8.46875 -13.703125 9.300781 -13.535156 10 -13.203125 C 10.695312 -12.867188 11.320312 -12.335938 11.875 -11.609375 L 11.875 -13.390625 Z M 7.78125 -10.75 C 6.664062 -10.75 5.742188 -10.351562 5.015625 -9.5625 C 4.285156 -8.78125 3.921875 -7.785156 3.921875 -6.578125 C 3.921875 -5.398438 4.285156 -4.445312 5.015625 -3.71875 C 5.753906 -2.988281 6.710938 -2.625 7.890625 -2.625 C 9.046875 -2.625 9.976562 -2.992188 10.6875 -3.734375 C 11.40625 -4.472656 11.765625 -5.441406 11.765625 -6.640625 C 11.765625 -7.859375 11.390625 -8.847656 10.640625 -9.609375 C 9.898438 -10.367188 8.945312 -10.75 7.78125 -10.75 Z M 7.78125 -10.75 "/></g></g></g><g fill="#ffffff" fill-opacity="1"><g transform="translate(40.628633, 23.744737)"><g><path d="M 1.3125 0 C 1.3125 0 1.3125 -4.460938 1.3125 -13.390625 C 1.3125 -13.390625 2.289062 -13.390625 4.25 -13.390625 C 4.25 -13.390625 4.25 -12.957031 4.25 -12.09375 C 4.675781 -12.707031 5.09375 -13.128906 5.5 -13.359375 C 5.90625 -13.585938 6.457031 -13.703125 7.15625 -13.703125 L 7.40625 -13.703125 C 7.40625 -13.703125 7.40625 -12.671875 7.40625 -10.609375 C 5.476562 -10.566406 4.515625 -9.515625 4.515625 -7.453125 C 4.515625 -7.453125 4.515625 -4.96875 4.515625 0 C 4.515625 0 3.445312 0 1.3125 0 Z M 1.3125 0 "/></g></g></g><g fill="#ffffff" fill-opacity="1"><g transform="translate(48.592748, 23.744737)"><g><path d="M 1.3125 0 C 1.3125 0 1.3125 -5.953125 1.3125 -17.859375 C 1.3125 -17.859375 2.378906 -17.859375 4.515625 -17.859375 C 4.515625 -17.859375 4.515625 -14.265625 4.515625 -7.078125 C 4.515625 -7.078125 5.941406 -9.179688 8.796875 -13.390625 C 8.796875 -13.390625 10.078125 -13.390625 12.640625 -13.390625 C 12.640625 -13.390625 11.046875 -11.207031 7.859375 -6.84375 C 7.859375 -6.84375 9.710938 -4.5625 13.421875 0 C 13.421875 0 11.976562 0 9.09375 0 C 9.09375 0 7.566406 -2.082031 4.515625 -6.25 C 4.515625 -6.25 4.515625 -4.164062 4.515625 0 C 4.515625 0 3.445312 0 1.3125 0 Z M 1.3125 0 "/></g></g></g><g fill="#ffffff" fill-opacity="1"><g transform="translate(62.043237, 23.744737)"><g/></g></g><g fill="#ffffff" fill-opacity="1"><g transform="translate(68.814311, 23.744737)"><g><path d="M 1.515625 0 C 1.515625 0 1.515625 -5.953125 1.515625 -17.859375 C 1.515625 -17.859375 2.113281 -17.859375 3.3125 -17.859375 C 3.3125 -17.859375 3.3125 -13.632812 3.3125 -5.1875 C 3.3125 -5.1875 5.367188 -7.863281 9.484375 -13.21875 C 9.484375 -13.21875 10.210938 -13.21875 11.671875 -13.21875 C 11.671875 -13.21875 9.957031 -11.003906 6.53125 -6.578125 C 6.53125 -6.578125 8.359375 -4.382812 12.015625 0 C 12.015625 0 11.269531 0 9.78125 0 C 9.78125 0 8.316406 -1.765625 5.390625 -5.296875 C 5.390625 -5.296875 4.695312 -4.4375 3.3125 -2.71875 C 3.3125 -2.71875 3.3125 -1.8125 3.3125 0 C 3.3125 0 2.710938 0 1.515625 0 Z M 1.515625 0 "/></g></g></g><g fill="#ffffff" fill-opacity="1"><g transform="translate(80.943348, 23.744737)"><g><path d="M 8.03125 -13.53125 C 9.3125 -13.53125 10.46875 -13.226562 11.5 -12.625 C 12.53125 -12.03125 13.335938 -11.203125 13.921875 -10.140625 C 14.515625 -9.078125 14.8125 -7.890625 14.8125 -6.578125 C 14.8125 -4.585938 14.171875 -2.941406 12.890625 -1.640625 C 11.617188 -0.335938 10.015625 0.3125 8.078125 0.3125 C 6.742188 0.3125 5.535156 0.015625 4.453125 -0.578125 C 3.378906 -1.171875 2.535156 -1.992188 1.921875 -3.046875 C 1.316406 -4.109375 1.015625 -5.289062 1.015625 -6.59375 C 1.015625 -8.601562 1.675781 -10.257812 3 -11.5625 C 4.320312 -12.875 6 -13.53125 8.03125 -13.53125 Z M 7.890625 -11.890625 C 6.441406 -11.890625 5.234375 -11.382812 4.265625 -10.375 C 3.304688 -9.363281 2.828125 -8.097656 2.828125 -6.578125 C 2.828125 -5.066406 3.316406 -3.8125 4.296875 -2.8125 C 5.285156 -1.820312 6.53125 -1.328125 8.03125 -1.328125 C 9.476562 -1.328125 10.664062 -1.816406 11.59375 -2.796875 C 12.53125 -3.773438 13 -5.023438 13 -6.546875 C 13 -8.109375 12.519531 -9.390625 11.5625 -10.390625 C 10.601562 -11.390625 9.378906 -11.890625 7.890625 -11.890625 Z M 7.890625 -11.890625 "/></g></g></g><g fill="#ffffff" fill-opacity="1"><g transform="translate(96.76538, 23.744737)"><g><path d="M 1.515625 -13.21875 C 1.515625 -13.21875 2.113281 -13.21875 3.3125 -13.21875 C 3.3125 -13.21875 3.3125 -12.460938 3.3125 -10.953125 C 3.863281 -11.796875 4.582031 -12.4375 5.46875 -12.875 C 6.351562 -13.3125 7.367188 -13.53125 8.515625 -13.53125 C 9.804688 -13.53125 10.984375 -13.226562 12.046875 -12.625 C 13.109375 -12.019531 13.941406 -11.1875 14.546875 -10.125 C 15.160156 -9.070312 15.46875 -7.894531 15.46875 -6.59375 C 15.46875 -5.3125 15.160156 -4.140625 14.546875 -3.078125 C 13.929688 -2.023438 13.085938 -1.195312 12.015625 -0.59375 C 10.941406 0.0078125 9.757812 0.3125 8.46875 0.3125 C 7.375 0.3125 6.382812 0.09375 5.5 -0.34375 C 4.625 -0.789062 3.894531 -1.4375 3.3125 -2.28125 L 3.3125 4.640625 L 1.515625 4.640625 Z M 8.375 -11.890625 C 6.914062 -11.890625 5.6875 -11.378906 4.6875 -10.359375 C 3.6875 -9.335938 3.1875 -8.082031 3.1875 -6.59375 C 3.1875 -5.101562 3.6875 -3.851562 4.6875 -2.84375 C 5.695312 -1.832031 6.945312 -1.328125 8.4375 -1.328125 C 9.925781 -1.328125 11.164062 -1.820312 12.15625 -2.8125 C 13.15625 -3.8125 13.65625 -5.054688 13.65625 -6.546875 C 13.65625 -8.109375 13.15625 -9.390625 12.15625 -10.390625 C 11.164062 -11.390625 9.90625 -11.890625 8.375 -11.890625 Z M 8.375 -11.890625 "/></g></g></g><g fill="#ffffff" fill-opacity="1"><g transform="translate(113.23633, 23.744737)"><g><path d="M 1.515625 0 C 1.515625 0 1.515625 -4.40625 1.515625 -13.21875 C 1.515625 -13.21875 2.113281 -13.21875 3.3125 -13.21875 C 3.3125 -13.21875 3.3125 -12.644531 3.3125 -11.5 C 4.40625 -12.851562 5.820312 -13.53125 7.5625 -13.53125 C 8.5 -13.53125 9.351562 -13.351562 10.125 -13 C 10.894531 -12.65625 11.539062 -12.148438 12.0625 -11.484375 C 12.488281 -10.921875 12.785156 -10.300781 12.953125 -9.625 C 13.128906 -8.945312 13.21875 -8.050781 13.21875 -6.9375 L 13.21875 0 L 11.4375 0 C 11.4375 0 11.4375 -2.3125 11.4375 -6.9375 C 11.4375 -7.832031 11.363281 -8.550781 11.21875 -9.09375 C 11.070312 -9.644531 10.832031 -10.128906 10.5 -10.546875 C 9.75 -11.441406 8.703125 -11.890625 7.359375 -11.890625 C 6.628906 -11.890625 5.960938 -11.738281 5.359375 -11.4375 C 4.765625 -11.144531 4.289062 -10.734375 3.9375 -10.203125 C 3.707031 -9.835938 3.546875 -9.4375 3.453125 -9 C 3.359375 -8.5625 3.3125 -7.984375 3.3125 -7.265625 L 3.3125 0 Z M 1.515625 0 "/></g></g></g><g fill="#ffffff" fill-opacity="1"><g transform="translate(127.972884, 23.744737)"><g><path d="M 14.765625 -6.015625 C 14.765625 -6.015625 10.78125 -6.015625 2.8125 -6.015625 C 2.882812 -4.710938 3.414062 -3.601562 4.40625 -2.6875 C 5.40625 -1.78125 6.585938 -1.328125 7.953125 -1.328125 C 8.960938 -1.328125 9.890625 -1.601562 10.734375 -2.15625 C 11.585938 -2.71875 12.195312 -3.453125 12.5625 -4.359375 L 14.4375 -4.359375 C 13.945312 -2.960938 13.109375 -1.832031 11.921875 -0.96875 C 10.742188 -0.113281 9.4375 0.3125 8 0.3125 C 7.039062 0.3125 6.128906 0.132812 5.265625 -0.21875 C 4.398438 -0.582031 3.65625 -1.070312 3.03125 -1.6875 C 2.40625 -2.3125 1.910156 -3.054688 1.546875 -3.921875 C 1.191406 -4.796875 1.015625 -5.710938 1.015625 -6.671875 C 1.015625 -7.929688 1.316406 -9.085938 1.921875 -10.140625 C 2.523438 -11.191406 3.347656 -12.019531 4.390625 -12.625 C 5.441406 -13.226562 6.597656 -13.53125 7.859375 -13.53125 C 9.160156 -13.53125 10.359375 -13.207031 11.453125 -12.5625 C 12.554688 -11.925781 13.394531 -11.050781 13.96875 -9.9375 C 14.257812 -9.375 14.460938 -8.800781 14.578125 -8.21875 C 14.703125 -7.632812 14.765625 -6.898438 14.765625 -6.015625 Z M 2.859375 -7.640625 L 12.984375 -7.640625 C 12.679688 -8.953125 12.070312 -9.988281 11.15625 -10.75 C 10.238281 -11.507812 9.140625 -11.890625 7.859375 -11.890625 C 6.609375 -11.890625 5.519531 -11.5 4.59375 -10.71875 C 3.675781 -9.9375 3.097656 -8.910156 2.859375 -7.640625 Z M 2.859375 -7.640625 "/></g></g></g><g fill="#ffffff" fill-opacity="1"><g transform="translate(143.676928, 23.744737)"><g><path d="M 5.75 0 C 5.75 0 3.894531 -4.40625 0.1875 -13.21875 C 0.1875 -13.21875 0.789062 -13.21875 2 -13.21875 C 2 -13.21875 3.546875 -9.507812 6.640625 -2.09375 C 6.640625 -2.09375 8.222656 -5.800781 11.390625 -13.21875 C 11.390625 -13.21875 11.992188 -13.21875 13.203125 -13.21875 C 13.203125 -13.21875 11.347656 -8.8125 7.640625 0 C 7.640625 0 7.007812 0 5.75 0 Z M 5.75 0 "/></g></g></g><g clip-path="url(#1618df1317)"><g fill="#f13024" fill-opacity="1"><g transform="translate(157.060446, 23.744737)"><g><path d="M 1.796875 0 C 1.796875 0 1.796875 -1.03125 1.796875 -3.09375 C 1.796875 -3.09375 2.863281 -3.09375 5 -3.09375 C 5 -3.09375 5 -2.0625 5 0 C 5 0 3.929688 0 1.796875 0 Z M 1.796875 0 "/></g></g></g></g></svg>